PathFileType	4	(X/Y/Z)	G:\マイドライブ\biomec\experimentalData\240725\SJ3.trc
DataRate	CameraRate	NumFrames	NumMarkers	Units	OrigDataRate	OrigDataStartFrame	OrigNumFrames
200.00	200.00	      7	52	mm	200.00	604	      1608
Frame#	Time	handR			wrRI			wrRO			elbRI			elbRO			shRF			shRU			shRB			handL			wrLI			wrLO			elbLI			elbLO			shLF			shLU			shLB			toeR			baRI			baRO			heelR			anRI			anRO			knRI			knRO			troR			toeL			baLI			baLO			heelL			anLI			anLO			knLI			knLO			troL			head			earR			earL			clav			c7			ribR			ribL			xiph			ASISR			ASISL			PSISR			PSISL			t8			t11			L1			L3			LS			COX			
		X1	Y1	Z1	X2	Y2	Z2	X3	Y3	Z3	X4	Y4	Z4	X5	Y5	Z5	X6	Y6	Z6	X7	Y7	Z7	X8	Y8	Z8	X9	Y9	Z9	X10	Y10	Z10	X11	Y11	Z11	X12	Y12	Z12	X13	Y13	Z13	X14	Y14	Z14	X15	Y15	Z15	X16	Y16	Z16	X17	Y17	Z17	X18	Y18	Z18	X19	Y19	Z19	X20	Y20	Z20	X21	Y21	Z21	X22	Y22	Z22	X23	Y23	Z23	X24	Y24	Z24	X25	Y25	Z25	X26	Y26	Z26	X27	Y27	Z27	X28	Y28	Z28	X29	Y29	Z29	X30	Y30	Z30	X31	Y31	Z31	X32	Y32	Z32	X33	Y33	Z33	X34	Y34	Z34	X35	Y35	Z35	X36	Y36	Z36	X37	Y37	Z37	X38	Y38	Z38	X39	Y39	Z39	X40	Y40	Z40	X41	Y41	Z41	X42	Y42	Z42	X43	Y43	Z43	X44	Y44	Z44	X45	Y45	Z45	X46	Y46	Z46	X47	Y47	Z47	X48	Y48	Z48	X49	Y49	Z49	X50	Y50	Z50	X51	Y51	Z51	X52	Y52	Z52	

604	3.015	503.49054	774.03503	712.38934	465.39508	704.04327	715.26422	453.42288	742.54303	776.32916	481.10696	593.77435	938.14410	531.96722	547.64740	895.72687	768.44287	751.48730	942.19800	694.98767	715.34821	1019.18903	755.54926	716.76312	1000.07721	524.06915	1050.84888	718.69934	470.28003	1112.34143	702.86865	471.80621	1070.64783	767.39508	492.20410	1235.52112	909.40094	543.37811	1279.86206	860.37341	764.12976	1067.40356	936.77625	679.18060	1096.04736	1009.57721	753.70447	1107.05139	991.09180	714.94012	728.97687	50.79041	632.82141	777.01300	31.85063	607.83923	654.74854	41.58628	429.32709	750.13367	40.54850	526.53302	790.81555	107.87845	504.54968	694.88318	106.06973	691.55426	821.27753	415.82858	706.29364	707.11353	426.25208	410.56189	723.45886	664.09741	709.03113	1083.64392	49.64550	642.46393	1029.00427	51.04333	605.05969	1139.04333	45.85631	424.77588	1055.41125	39.88569	531.80853	1014.78021	125.06856	499.89386	1104.16687	106.92878	695.44373	1006.28546	425.38916	690.77197	1128.42212	434.48105	410.92609	1085.99304	655.69153	836.56311	919.07971	1238.62549	883.27368	835.47198	1075.57751	879.16718	994.43719	1071.99878	772.53595	913.38049	925.74622	737.71045	916.88214	1065.60718	543.13947	806.92590	740.89374	544.20654	1015.94647	732.09161	682.32965	910.37872	788.11584	468.66931	801.14563	656.08020	459.39075	1033.07849	669.81989	333.62320	850.13257	771.63562	341.02139	971.06775	774.10236	544.70691	916.55377	971.56995	456.61234	915.83417	881.14612	415.00842	917.58325	837.17114	373.28177	913.72656	801.24408	323.71475	912.25458	772.20837	246.57632	910.55023	669.90045	
605	3.020	503.64407	774.20703	711.75391	465.54709	704.32776	714.53064	453.53290	742.83301	775.69690	481.13736	593.82062	937.12030	532.15985	547.71082	894.62701	768.41315	751.49866	941.50494	694.98273	715.31964	1018.24384	755.43115	716.58173	999.37805	523.85901	1050.74744	717.54865	470.37033	1112.72546	702.61908	471.86761	1070.96240	767.05389	492.41043	1235.60193	909.25635	543.55170	1279.95361	860.31299	764.28735	1067.43384	936.63080	679.28308	1095.96753	1009.38000	753.85986	1106.97449	990.92596	714.94299	728.99774	50.79258	632.82629	777.03943	31.82891	607.84814	654.76697	41.60596	429.35794	750.13745	40.57207	526.55426	790.87531	107.91278	504.56848	694.95502	106.10628	691.84674	821.56250	415.69080	706.47089	707.35364	426.17102	410.62317	723.76929	663.60779	709.03442	1083.65186	49.67459	642.49164	1029.03101	51.05101	605.07385	1139.04639	45.83681	424.80322	1055.38525	39.86923	531.81091	1014.80908	125.09361	499.88510	1104.19775	106.92599	695.50189	1006.55621	425.31909	690.88232	1128.61169	434.43561	410.85773	1086.27161	655.45642	835.77698	918.67432	1238.51160	883.12573	835.24438	1075.31372	879.14038	994.25677	1071.85669	772.62714	913.42157	925.28467	737.36688	916.63361	1065.36768	543.27197	807.03455	740.42798	544.26331	1016.06323	731.39178	682.47827	910.51190	787.67590	468.71326	801.41455	655.62811	459.41058	1033.32983	669.48334	333.69785	850.32446	771.17291	341.06708	971.22443	773.65808	544.86829	916.59412	971.04138	456.81876	915.91833	880.63837	415.12915	917.63068	836.73767	373.34467	913.85663	800.77313	323.79102	912.38763	771.82031	246.58461	910.77185	669.56909	
606	3.025	503.80252	774.35901	711.15234	465.62451	704.55853	713.70911	453.66522	743.03821	775.01752	481.26978	593.82281	936.29614	532.23071	547.74371	893.81726	768.38153	751.58716	940.89160	694.98578	715.21405	1017.55316	755.45532	716.45728	998.76837	523.63007	1050.63342	716.42450	470.50601	1113.12073	702.33752	471.93057	1071.26733	766.73456	492.54596	1235.67871	909.13635	543.78613	1280.05933	860.29950	764.44708	1067.47522	936.47925	679.38788	1095.85693	1009.19281	753.93060	1106.89587	990.78357	714.97052	729.00256	50.78209	632.82910	777.06189	31.80687	607.85522	654.78119	41.61740	429.36633	750.14301	40.55142	526.60425	790.93402	107.87421	504.59213	695.01459	106.13721	692.15991	821.85016	415.48697	706.64600	707.58954	426.16138	410.72391	724.06671	663.19055	709.03583	1083.66418	49.66707	642.46466	1029.02417	51.06017	605.08600	1139.06030	45.82693	424.80365	1055.38562	39.86679	531.83014	1014.85010	125.10135	499.86334	1104.23901	106.92244	695.57855	1006.73096	425.25790	690.98846	1128.81958	434.39145	410.86951	1086.51160	655.18921	835.10925	918.33984	1237.95789	883.02887	835.05017	1075.11621	878.98993	994.07556	1071.73010	772.73120	913.46118	924.94745	737.30084	916.43201	1064.94678	543.56024	807.14856	739.98584	544.23151	1016.09833	730.64349	682.68475	910.67310	787.23816	468.77353	801.58875	655.22711	459.26715	1033.65796	669.10822	333.82953	850.48590	770.70319	341.17783	971.42603	773.20428	545.02490	916.62048	970.54169	456.88330	916.01862	880.17987	415.27347	917.70642	836.26947	373.44669	913.93201	800.32391	323.89801	912.55310	771.45099	246.59901	911.01990	669.23669	
607	3.030	503.96548	774.49188	710.58325	465.79782	704.83282	712.85492	453.68799	743.29810	774.23865	481.25848	593.76404	935.45154	532.20251	547.77838	892.90027	768.41656	751.64948	940.31720	695.04382	715.02985	1016.98010	755.55341	716.44983	998.11279	523.38202	1050.50696	715.32690	470.63660	1113.44482	702.08075	471.89548	1071.50146	766.48657	492.68494	1235.73779	909.06927	543.91565	1280.18823	860.27313	764.57593	1067.52698	936.32349	679.46497	1095.73523	1009.02216	754.04266	1106.78979	990.68085	714.97394	728.99921	50.77919	632.81335	777.07910	31.79733	607.86285	654.79022	41.61443	429.40460	750.16138	40.55429	526.63086	790.96600	107.80487	504.58112	695.08301	106.16964	692.41052	822.12109	415.26712	706.77185	707.82385	426.08978	410.83228	724.28619	662.85590	709.03363	1083.66516	49.66322	642.47095	1029.05090	51.04551	605.10345	1139.06104	45.81363	424.80820	1055.40491	39.86787	531.84436	1014.88104	125.10620	499.91553	1104.26611	106.91373	695.64142	1006.88525	425.25385	691.05493	1129.01587	434.30670	410.87515	1086.76965	654.93060	834.34625	917.91962	1237.87305	882.93408	834.83899	1074.93005	878.86810	993.92529	1071.64722	772.78833	913.53638	924.57025	737.26855	916.29456	1064.52283	543.88757	807.23132	739.42157	544.15973	1016.24817	730.21014	682.84662	910.93878	786.80920	468.90567	801.83014	654.77496	459.44107	1034.00586	668.75037	334.00516	850.63995	770.26361	341.25922	971.58081	772.79352	545.15027	916.59100	970.03680	457.07089	916.12054	879.63824	415.38715	917.80042	835.81299	373.52966	913.99329	799.94836	324.04016	912.71527	771.11365	246.62085	911.21161	668.96234	
608	3.035	504.13269	774.60706	710.04529	466.06738	705.09485	712.25323	453.80948	743.55432	773.54071	481.28113	593.67737	934.44965	532.33356	547.84186	891.73779	768.46503	751.62231	939.70227	695.04651	714.92010	1016.42346	755.61420	716.43463	997.44305	523.11450	1050.36804	714.25623	470.81854	1113.70154	701.89288	471.84268	1071.71594	766.25964	492.75827	1235.77087	908.99780	544.02875	1280.27002	860.24841	764.69647	1067.60229	936.21704	679.51617	1095.58582	1008.83368	754.10791	1106.70386	990.59387	714.98749	729.00507	50.76292	632.82831	777.11426	31.80573	607.88068	654.80267	41.62662	429.40573	750.17529	40.55434	526.61395	791.03522	107.78222	504.60605	695.12427	106.20568	692.52954	822.43323	415.04169	706.92090	708.06818	426.01218	410.94281	724.55444	662.49512	709.03320	1083.65125	49.67326	642.46637	1029.06921	51.06440	605.10706	1139.08374	45.79780	424.84109	1055.40637	39.84002	531.84192	1014.90820	125.13958	499.88345	1104.29346	106.92625	695.69543	1007.04010	425.20087	691.07306	1129.17151	434.24130	410.89590	1087.02686	654.69965	833.82782	917.62598	1237.68311	882.81964	834.66962	1074.72961	878.74713	993.78015	1071.68396	772.87646	913.62506	924.26465	737.24915	916.14496	1064.12146	544.24591	807.51538	738.74481	544.23853	1016.40356	729.71252	683.01318	911.16772	786.39587	469.10193	802.23383	654.21606	459.42920	1034.39404	668.42792	334.13809	850.77753	769.86481	341.27884	971.70972	772.44519	545.28906	916.56030	969.50378	457.14197	916.16907	879.21112	414.98721	918.07172	835.75354	373.56903	914.08752	799.56891	324.13663	912.87903	770.80920	246.62614	911.39307	668.67413	
609	3.040	504.30374	774.70551	709.53729	466.21576	705.33307	711.76068	453.95111	743.68060	773.08258	481.40802	593.65448	933.60205	532.47827	547.79633	890.93329	768.59930	751.55164	939.11066	695.04236	714.88452	1015.76440	755.60077	716.32837	996.73926	522.82721	1050.21619	713.21277	470.89752	1113.95752	701.71930	471.75485	1071.91431	766.05408	492.84396	1235.78516	908.97797	544.08929	1280.34033	860.25378	764.81024	1067.68628	936.13763	679.51215	1095.46240	1008.69153	754.17621	1106.63123	990.57001	715.00226	729.00299	50.74112	632.85339	777.13831	31.80666	607.90582	654.80634	41.64054	429.39471	750.15936	40.58774	526.60901	791.09094	107.75681	504.62726	695.16736	106.20623	692.61731	822.67041	414.83902	707.07483	708.33533	425.94147	410.98822	724.82269	662.21759	709.02948	1083.67224	49.66478	642.46002	1029.08899	51.10357	605.07745	1139.07227	45.79251	424.85007	1055.39673	39.82205	531.86469	1014.95789	125.12717	499.91147	1104.33936	106.86142	695.72607	1007.19617	425.12766	691.11517	1129.32483	434.17941	410.88535	1087.23376	654.53223	833.39215	917.35059	1237.48840	882.73547	834.46802	1074.54517	878.67236	993.61774	1071.62903	772.94263	913.68420	923.97504	737.21967	916.00500	1063.72864	544.45801	807.81946	738.17615	544.23700	1016.53766	729.23242	683.10107	911.40723	785.99438	469.32532	802.60681	653.74579	459.52356	1034.73682	668.18054	334.29364	850.91901	769.45856	341.32700	971.86957	772.13544	545.20667	916.50757	969.20013	457.19278	916.21228	878.84448	415.06589	918.18329	835.33710	373.63547	914.19434	799.24536	324.22598	913.04205	770.51819	246.61172	911.59186	668.40533	
610	3.045	504.47827	774.78864	709.05792	466.40378	705.72791	711.17041	454.07181	743.81512	772.63007	481.50726	593.60693	932.89642	532.60364	547.87787	890.29950	768.63275	751.53430	938.58221	695.01770	714.84100	1015.00073	755.52795	716.28198	996.18951	522.51984	1050.05164	712.19696	470.90405	1114.25317	701.52557	471.69360	1072.11963	765.81976	492.86511	1235.79639	908.98907	544.15515	1280.38208	860.29224	764.93774	1067.76660	936.10303	679.51990	1095.32886	1008.57758	754.18158	1106.56921	990.53644	715.03387	728.98834	50.72580	632.84991	777.14575	31.78545	607.91003	654.82819	41.63968	429.43073	750.16949	40.54387	526.64764	791.14941	107.71408	504.62845	695.22351	106.24954	692.61932	822.86523	414.64395	707.21942	708.59222	425.86020	411.07120	725.05237	661.92676	709.03052	1083.65479	49.67306	642.46948	1029.10083	51.09369	605.06152	1139.10168	45.80761	424.89603	1055.37964	39.78305	531.86572	1014.98621	125.14867	499.91653	1104.36328	106.86277	695.78192	1007.38281	425.03040	691.16644	1129.46826	434.06818	410.85034	1087.49023	654.35229	832.75031	916.95856	1237.28577	882.62366	834.28802	1074.40686	878.46844	993.46375	1071.58508	772.99988	913.73566	923.66003	737.13007	915.86749	1063.36890	544.57172	808.05975	737.66974	544.16522	1016.64441	728.74231	683.15247	911.59698	785.66852	469.41257	802.88574	653.33179	459.48401	1035.01367	668.02185	334.39270	851.04834	769.09796	341.39090	972.00024	771.87067	545.28650	916.48041	968.76575	457.24405	916.24347	878.50110	415.17130	918.29669	835.00293	373.73532	914.31421	798.90594	324.24313	913.20984	770.18854	246.60226	911.79797	668.14697	
